# xmcd
#
# Track frame offsets:
#	180
#	8155
#	19781
#	32043
#	42026
#	54124
#	64663
#	73777
#	83409
#	95474
#	110279
#	126732
#	136347
#	145977
#
# Disc length: 2075 seconds
#
# Revision: 4
# Processed by: cddbd v1.5.2PL0 Copyright (c) Steve Scherf et al.
# Submitted via: EasyCDDAExtractor 12.0.7.1
#
DISCID=b608190e
DTITLE=Tina Turner - Forevergold
DYEAR=2005
DGENRE=Soul
TTITLE0=My Babe
TTITLE1=So Fine
TTITLE2=Better Got To Steppin '
TTITLE3=Shake A Tail Feather
TTITLE4=We Need An Understanding
TTITLE5=You're So Fine
TTITLE6=Here's The Heart
TTITLE7=Please Love Me
TTITLE8=Rock My Baby
TTITLE9=Crazy 'Bout You Baby
TTITLE10=I Smell Trouble
TTITLE11=Beauty Is Just Skin Deep
TTITLE12=I'm Fed Up
TTITLE13=Make 'Em Wait
EXTD=
EXTT0=
EXTT1=
EXTT2=
EXTT3=
EXTT4=
EXTT5=
EXTT6=
EXTT7=
EXTT8=
EXTT9=
EXTT10=
EXTT11=
EXTT12=
EXTT13=
PLAYORDER=
